<?xml version="1.0" encoding="UTF-8" standalone="no"?>
<!-- Created with Inkscape (http://www.inkscape.org/) -->

<svg
   xmlns:dc="http://purl.org/dc/elements/1.1/"
   xmlns:cc="http://creativecommons.org/ns#"
   xmlns:rdf="http://www.w3.org/1999/02/22-rdf-syntax-ns#"
   xmlns:svg="http://www.w3.org/2000/svg"
   xmlns="http://www.w3.org/2000/svg"
   xmlns:inkscape="http://www.inkscape.org/namespaces/inkscape"
   version="1.1"
   width="765"
   height="990"
   id="svg2"
   xml:space="preserve"><metadata
     id="metadata8"><rdf:RDF><cc:Work
         rdf:about=""><dc:format>image/svg+xml</dc:format><dc:type
           rdf:resource="http://purl.org/dc/dcmitype/StillImage" /></cc:Work></rdf:RDF></metadata><defs
     id="defs6"><clipPath
       id="clipPath16"><path
         d="M 0,792 612,792 612,0 0,0 0,792 z"
         inkscape:connector-curvature="0"
         id="path18" /></clipPath></defs><g
     transform="matrix(1.25,0,0,-1.25,0,990)"
     id="g10"><g
       id="g12"><g
         clip-path="url(#clipPath16)"
         id="g14"><g
           transform="translate(93.7852,413.9443)"
           id="g20"><path
             d="m 0,0 c 0,0 1.305,-6.991 6.524,-10.491 14.352,-19.243 29.358,-25.662 33.925,-36.73 4.562,-11.086 10.437,-40.822 21.528,-55.981 11.09,-15.16 20.876,-24.495 27.402,-32.069 6.521,-7.579 9.78,-20.994 9.78,-27.992 0,-6.994 1.959,-22.738 1.959,-22.738 l 100.472,-0.583 c 0,0 9.783,77.553 5.213,98.538 -4.567,20.991 -9.783,58.899 -5.865,76.968 1.053,17.813 -2.702,33.53 -12.076,43.369 -5.619,0.138 -6.58,2.176 -7.668,2.6 -2.483,0.901 -3.811,-0.153 -3.936,-1.257 -0.488,-4.408 -1.895,-9.435 -3.724,-9.141 -2.286,0.365 -9.134,12.824 -13.704,33.243 -4.567,20.409 -7.826,44.314 -6.518,60.638 1.302,16.327 -1.308,36.158 -1.959,49.565 -0.652,13.408 -5.868,17.487 -13.045,11.658 -7.18,-5.828 -10.444,-13.407 -10.444,-16.907 0,-3.496 -1.301,-22.155 -2.608,-29.154 -1.303,-6.996 -5.221,-17.491 -5.221,-25.067 l 0,-59.484 c 0,-8.163 -6.518,-18.661 -6.518,-26.247 0,-7.576 -5.226,-26.815 -9.788,-35.558 C 89.379,-68.799 61.974,-7.581 59.366,0.587 56.756,8.748 36.534,22.161 17.612,18.661 11.745,16.906 6.524,13.997 3.265,11.08 0,8.163 0,0 0,0"
             inkscape:connector-curvature="0"
             id="path22"
             style="fill:#0082c3;fill-opacity:1;fill-rule:nonzero;stroke:none" /></g><g
           transform="translate(430.0454,315.6611)"
           id="g24"><path
             d="m 0,0 c 0,0 0.664,-3.341 3.28,-5.006 7.218,-9.187 14.758,-12.248 17.054,-17.53 2.294,-5.29 5.245,-19.476 10.815,-26.707 5.576,-7.236 10.496,-11.691 13.775,-15.305 3.28,-3.617 4.92,-10.015 4.92,-13.351 0,-3.341 0.981,-10.851 0.981,-10.851 l 50.492,-0.283 c 0,0 4.92,37.011 2.621,47.021 -2.294,10.018 -4.919,28.094 -2.95,36.72 0.533,8.508 -1.351,16.002 -6.064,20.697 -2.828,0.069 -3.302,1.037 -3.854,1.241 -1.255,0.424 -1.916,-0.074 -1.977,-0.6 -0.251,-2.105 -0.958,-4.5 -1.878,-4.362 -1.141,0.173 -4.587,6.12 -6.879,15.859 -2.301,9.736 -3.938,21.139 -3.282,28.933 0.654,7.793 -0.656,17.251 -0.98,23.651 -0.33,6.396 -2.956,8.343 -6.56,5.559 -3.609,-2.782 -5.246,-6.399 -5.246,-8.067 0,-1.671 -0.654,-10.569 -1.313,-13.911 -0.659,-3.34 -2.618,-8.342 -2.618,-11.961 l 0,-28.381 c 0,-3.892 -3.288,-8.903 -3.288,-12.515 0,-3.622 -2.615,-12.797 -4.914,-16.978 C 44.924,-32.829 31.149,-3.616 29.839,0.278 28.534,4.171 18.365,10.569 8.856,8.902 5.908,8.064 3.285,6.675 1.647,5.285 0,3.893 0,0 0,0"
             inkscape:connector-curvature="0"
             id="path26"
             style="fill:#0093d1;fill-opacity:1;fill-rule:nonzero;stroke:none" /></g><g
           transform="translate(146.96,309.0332)"
           id="g28"><path
             d="m 0,0 c 0,0 -0.56,-3.094 -2.771,-4.636 -6.087,-8.503 -12.45,-11.336 -14.391,-16.222 -1.934,-4.902 -4.429,-18.028 -9.127,-24.723 -4.71,-6.697 -8.857,-10.817 -11.622,-14.166 -2.774,-3.346 -4.155,-9.267 -4.155,-12.355 0,-3.09 -0.83,-10.045 -0.83,-10.045 l -42.616,-0.258 c 0,0 -4.148,34.252 -2.212,43.516 1.936,9.273 4.154,26.008 2.488,33.988 -0.444,7.869 1.145,14.809 5.124,19.156 2.381,0.061 2.792,0.953 3.254,1.147 1.053,0.391 1.617,-0.069 1.668,-0.559 0.207,-1.947 0.805,-4.163 1.579,-4.033 0.97,0.156 3.875,5.663 5.808,14.673 1.939,9.015 3.328,19.569 2.771,26.78 -0.551,7.208 0.557,15.964 0.828,21.889 0.276,5.921 2.491,7.719 5.535,5.145 3.045,-2.572 4.432,-5.921 4.432,-7.463 0,-1.543 0.547,-9.786 1.103,-12.877 0.557,-3.091 2.212,-7.722 2.212,-11.07 l 0,-26.265 c 0,-3.601 2.769,-8.24 2.769,-11.589 0,-3.344 2.215,-11.839 4.153,-15.706 6.089,-24.718 17.711,2.324 18.815,5.929 1.108,3.6 9.685,9.519 17.711,7.972 C -4.989,7.461 -2.771,6.179 -1.387,4.889 0,3.597 0,0 0,0"
             inkscape:connector-curvature="0"
             id="path30"
             style="fill:#0093d1;fill-opacity:1;fill-rule:nonzero;stroke:none" /></g><g
           transform="translate(441.8691,349.3926)"
           id="g32"><path
             d="m 0,0 c 0,0 -0.835,-4.636 -4.161,-6.952 -9.121,-12.756 -18.674,-17.007 -21.578,-24.342 -2.905,-7.349 -6.646,-27.05 -13.696,-37.099 -7.055,-10.053 -13.285,-16.232 -17.433,-21.255 -4.153,-5.017 -6.23,-13.907 -6.23,-18.542 0,-4.636 -1.249,-15.073 -1.249,-15.073 l -63.923,-0.383 c 0,0 -6.227,51.394 -3.32,65.297 2.906,13.915 6.227,39.029 3.734,51.003 -0.666,11.809 1.717,22.225 7.686,28.743 3.573,0.092 4.191,1.439 4.874,1.724 1.581,0.593 2.428,-0.104 2.505,-0.835 0.309,-2.925 1.206,-6.245 2.375,-6.061 1.457,0.246 5.809,8.505 8.716,22.028 2.909,13.53 4.981,29.364 4.153,40.188 -0.828,10.815 0.828,23.959 1.241,32.851 0.414,8.884 3.737,11.588 8.304,7.724 4.567,-3.87 6.639,-8.886 6.639,-11.211 0,-2.316 0.835,-14.681 1.66,-19.318 0.83,-4.643 3.321,-11.593 3.321,-16.615 l 0,-39.417 c 0,-5.402 4.153,-12.363 4.153,-17.387 0,-5.019 3.325,-17.767 6.229,-23.568 9.132,-37.099 26.565,3.477 28.223,8.889 1.66,5.404 14.533,14.296 26.571,11.974 3.732,-1.16 7.045,-3.091 9.129,-5.021 C 0,5.41 0,0 0,0"
             inkscape:connector-curvature="0"
             id="path34"
             style="fill:#0093d1;fill-opacity:1;fill-rule:nonzero;stroke:none" /></g><g
           transform="translate(115.9561,507.9458)"
           id="g36"><path
             d="m 0,0 c 0,17.149 -12.516,27.959 -20.393,27.959 -4.171,0 -8.189,-0.925 -11.895,-4.94 -6.025,-6.181 -8.187,-12.516 -8.187,-24.255 0,-8.649 0.925,-14.521 5.87,-21.627 3.553,-5.098 8.033,-8.033 15.295,-8.033 C -7.571,-30.896 0,-16.531 0,0 m -44.646,-24.871 c -7.105,8.496 -8.498,14.209 -8.498,25.18 0,7.878 4.171,17.765 13.288,24.871 8.03,6.179 15.601,7.418 20.699,7.418 8.496,0 16.994,-4.327 21.627,-8.963 6.953,-7.106 10.503,-15.139 10.503,-25.18 0,-16.838 -15.136,-33.985 -34.138,-33.985 -7.417,0 -16.993,2.935 -23.481,10.659"
             inkscape:connector-curvature="0"
             id="path38"
             style="fill:#2d2c2e;fill-opacity:1;fill-rule:nonzero;stroke:none" /></g><g
           transform="translate(159.2051,489.7163)"
           id="g40"><path
             d="m 0,0 c 0,-3.397 0.312,-6.179 3.246,-8.187 4.325,-3.09 9.114,-4.17 15.448,-4.17 8.805,0 17.918,6.643 17.918,25.797 0,21.627 -9.731,30.278 -20.081,30.278 C 10.043,43.718 3.708,40.012 0,33.831 L 0,0 z m -11.122,28.271 c 0,3.708 -1.08,5.869 -5.56,8.342 l -3.553,2.007 c -1.083,0.465 -1.083,0.927 -1.083,1.392 l 0,1.237 c 0,0.462 0.312,0.771 1.083,1.078 l 14.83,7.417 c 1.236,0.618 2.47,1.236 3.553,1.236 0.771,0 1.081,-0.773 1.081,-3.09 l 0.618,-7.415 0.465,0 c 4.168,5.407 12.201,10.35 22.554,10.35 7.877,0 13.129,-3.4 17.609,-7.569 5.869,-5.869 8.342,-12.204 8.342,-24.102 0,-20.235 -14.059,-36.454 -33.369,-36.454 -4.169,0 -10.659,0.618 -15.448,2.626 l 0,-32.595 c 0,-4.325 1.083,-5.099 3.402,-5.099 l 6.794,0 c 1.237,0 1.39,-0.618 1.39,-1.545 l 0,-2.626 c 0,-0.924 -0.307,-1.389 -1.39,-1.389 -0.771,0 -6.023,0.465 -15.91,0.465 -8.96,0 -14.368,-0.465 -15.604,-0.465 -1.08,0 -1.39,0.465 -1.39,1.389 l 0,2.782 c 0,0.771 0.31,1.389 1.855,1.389 l 6.023,0 c 2.628,0 2.937,1.546 3.247,3.863 0.461,3.399 0.461,11.739 0.461,26.878 l 0,49.898 z"
             inkscape:connector-curvature="0"
             id="path42"
             style="fill:#2d2c2e;fill-opacity:1;fill-rule:nonzero;stroke:none" /></g><g
           transform="translate(322.1816,482.6128)"
           id="g44"><path
             d="m 0,0 c 0,-2.473 1.39,-3.247 3.397,-3.247 l 4.943,0 c 1.392,0 1.701,-0.462 1.701,-1.389 l 0,-2.472 c 0,-1.081 -0.309,-1.699 -1.236,-1.699 -1.081,0 -5.87,0.462 -14.675,0.462 -7.88,0 -12.822,-0.462 -13.905,-0.462 -0.927,0 -1.236,0.462 -1.236,1.699 l 0,2.472 c 0,1.08 0.465,1.389 2.01,1.389 l 4.48,0 c 1.699,0 2.935,0.774 3.088,3.554 0.154,4.017 0.309,8.96 0.309,12.978 l 0,20.39 c 0,6.179 0,10.659 -4.477,13.903 -3.709,2.782 -7.418,2.782 -11.28,2.782 -2.47,0 -7.877,-1.083 -12.511,-6.026 -3.09,-3.399 -3.555,-7.568 -3.555,-10.505 l 0,-31.975 c 0,-4.173 0.465,-5.101 3.709,-5.101 l 3.862,0 c 1.236,0 1.545,-0.462 1.545,-1.545 l 0,-2.625 c 0,-0.928 -0.309,-1.39 -1.081,-1.39 -1.083,0 -5.254,0.462 -13.44,0.462 -7.88,0 -12.822,-0.462 -13.75,-0.462 -0.771,0 -1.08,0.462 -1.08,1.39 l 0,2.781 c 0,0.927 0.309,1.389 1.543,1.389 l 4.483,0 c 2.007,0 3.088,0.463 3.088,3.091 l 0,36.148 c 0,4.636 -2.473,7.262 -6.335,9.113 l -1.236,0.619 c -1.078,0.464 -1.234,0.927 -1.234,1.392 l 0,0.771 c 0,0.772 0.618,1.237 1.39,1.543 l 13.284,7.418 c 1.237,0.618 2.164,1.08 2.782,1.08 0.771,0 1.081,-0.618 1.233,-1.852 l 1.083,-9.425 0.309,0 c 4.481,5.563 13.441,11.277 21.165,11.277 4.634,0 9.423,-0.927 13.132,-3.4 C -3.862,51.44 0,43.716 0,39.854 L 0,0 z"
             inkscape:connector-curvature="0"
             id="path46"
             style="fill:#2d2c2e;fill-opacity:1;fill-rule:nonzero;stroke:none" /></g><g
           transform="translate(343.9619,566.3389)"
           id="g48"><path
             d="m 0,0 c 0,3.862 3.247,8.033 9.425,8.033 5.408,0 8.031,-4.171 8.031,-7.571 0,-4.015 -2.782,-8.495 -8.958,-8.495 C 5.101,-8.033 0,-4.942 0,0 m 6.95,-47.116 c 0,5.252 -0.922,8.033 -8.646,9.269 -1.086,0.154 -1.392,0.465 -1.392,1.081 l 0,1.392 c 0,0.462 0.306,0.771 1.08,1.078 4.943,1.854 10.813,4.327 16.682,7.571 1.239,0.618 2.013,0.927 2.935,0.927 0.774,0 0.927,-0.774 0.774,-1.852 -0.309,-2.628 -0.309,-12.36 -0.309,-25.18 l 0,-16.84 c 0,-6.025 0,-11.586 0.156,-13.285 0.306,-2.935 0.771,-4.018 2.472,-4.018 l 7.106,0 c 1.234,0 1.546,-0.462 1.546,-1.389 l 0,-2.626 c 0,-1.083 -0.312,-1.545 -1.393,-1.545 -1.236,0 -8.339,0.462 -14.83,0.462 -8.957,0 -14.985,-0.462 -16.681,-0.462 -0.774,0 -1.239,0.309 -1.239,1.236 l 0,3.088 c 0,0.927 0.465,1.236 1.545,1.236 l 7.571,0 c 1.701,0 2.317,0.619 2.47,3.091 0.153,4.633 0.153,9.423 0.153,14.056 l 0,22.71 z"
             inkscape:connector-curvature="0"
             id="path50"
             style="fill:#2d2c2e;fill-opacity:1;fill-rule:nonzero;stroke:none" /></g><g
           transform="translate(409.4634,550.8906)"
           id="g52"><path
             d="M 0,0 C -0.307,0.309 -0.307,0.618 0,0.927 L 14.833,19.31 c 1.701,2.008 3.709,3.862 6.485,3.862 4.173,0 7.724,-5.869 1.701,-10.194 L 2.782,-1.545 c -0.307,-0.307 -0.616,-0.307 -0.928,0 L 0,0 z m 25.491,-42.945 c 0,17.15 -12.513,27.959 -20.39,27.959 -4.174,0 -8.189,-0.925 -11.898,-4.94 -6.023,-6.181 -8.186,-12.515 -8.186,-24.255 0,-8.649 0.927,-14.521 5.872,-21.627 3.553,-5.098 8.03,-8.033 15.292,-8.033 11.739,0 19.31,14.365 19.31,30.896 m -44.643,-24.87 c -7.108,8.495 -8.498,14.209 -8.498,25.179 0,7.878 4.171,17.765 13.287,24.871 8.031,6.179 15.602,7.415 20.697,7.415 8.499,0 16.997,-4.324 21.627,-8.96 6.956,-7.106 10.506,-15.139 10.506,-25.18 0,-16.838 -15.136,-33.985 -34.14,-33.985 -7.415,0 -16.994,2.935 -23.479,10.66"
             inkscape:connector-curvature="0"
             id="path54"
             style="fill:#2d2c2e;fill-opacity:1;fill-rule:nonzero;stroke:none" /></g><g
           transform="translate(521.9272,482.6128)"
           id="g56"><path
             d="m 0,0 c 0,-2.473 1.39,-3.247 3.397,-3.247 l 4.948,0 c 1.387,0 1.696,-0.462 1.696,-1.389 l 0,-2.472 c 0,-1.081 -0.309,-1.699 -1.234,-1.699 -1.083,0 -5.872,0.462 -14.677,0.462 -7.877,0 -12.819,-0.462 -13.905,-0.462 -0.927,0 -1.234,0.462 -1.234,1.699 l 0,2.472 c 0,1.08 0.465,1.389 2.008,1.389 l 4.48,0 c 1.701,0 2.935,0.774 3.091,3.554 0.153,4.017 0.306,8.96 0.306,12.978 l 0,20.39 c 0,6.179 0,10.659 -4.478,13.903 -3.708,2.782 -7.415,2.782 -11.276,2.782 -2.47,0 -7.88,-1.083 -12.514,-6.026 -3.09,-3.399 -3.55,-7.568 -3.55,-10.505 l 0,-31.975 c 0,-4.173 0.46,-5.101 3.704,-5.101 l 3.862,0 c 1.238,0 1.545,-0.462 1.545,-1.545 l 0,-2.625 c 0,-0.928 -0.307,-1.39 -1.081,-1.39 -1.08,0 -5.254,0.462 -13.44,0.462 -7.877,0 -12.82,-0.462 -13.747,-0.462 -0.774,0 -1.081,0.462 -1.081,1.39 l 0,2.781 c 0,0.927 0.307,1.389 1.543,1.389 l 4.48,0 c 2.008,0 3.091,0.463 3.091,3.091 l 0,36.148 c 0,4.636 -2.475,7.262 -6.337,9.113 l -1.234,0.619 c -1.08,0.464 -1.236,0.927 -1.236,1.392 l 0,0.771 c 0,0.772 0.621,1.237 1.39,1.543 l 13.287,7.418 c 1.234,0.618 2.161,1.08 2.779,1.08 0.774,0 1.083,-0.618 1.236,-1.852 l 1.08,-9.425 0.312,0 c 4.478,5.563 13.441,11.277 21.164,11.277 4.631,0 9.421,-0.927 13.129,-3.4 C -3.862,51.44 0,43.716 0,39.854 L 0,0 z"
             inkscape:connector-curvature="0"
             id="path58"
             style="fill:#2d2c2e;fill-opacity:1;fill-rule:nonzero;stroke:none" /></g><g
           transform="translate(95.2129,564.7935)"
           id="g60"><path
             d="m 0,0 c 0.861,-0.199 1.947,-0.276 3.262,-0.276 4.751,0 7.65,2.059 7.65,5.666 0,3.563 -2.899,5.266 -7.198,5.266 C 1.993,10.656 0.682,10.539 0,10.38 L 0,0 z m -3.938,12.874 c 1.902,0.278 4.39,0.515 7.563,0.515 3.893,0 6.743,-0.791 8.554,-2.217 1.63,-1.269 2.672,-3.208 2.672,-5.583 0,-2.419 -0.815,-4.319 -2.353,-5.707 C 10.368,-2.059 7.017,-3.05 3.17,-3.05 1.993,-3.05 0.907,-3.009 0,-2.81 l 0,-10.697 -3.938,0 0,26.381 z"
             inkscape:connector-curvature="0"
             id="path62"
             style="fill:#2d2c2e;fill-opacity:1;fill-rule:nonzero;stroke:none" /></g><g
           transform="translate(126.5869,562.377)"
           id="g64"><path
             d="m 0,0 -3.034,7.686 c -0.68,1.745 -1.129,3.328 -1.584,4.874 l -0.092,0 C -5.16,11.014 -5.614,9.352 -6.248,7.727 L -9.236,0 0,0 z m -10.051,-2.692 -3.17,-8.398 -4.074,0 10.414,26.699 4.708,0 10.413,-26.699 -4.212,0 -3.259,8.398 -10.82,0 z"
             inkscape:connector-curvature="0"
             id="path66"
             style="fill:#2d2c2e;fill-opacity:1;fill-rule:nonzero;stroke:none" /></g><g
           transform="translate(139.3096,551.2866)"
           id="g68"><path
             d="m 0,0 0,26.7 4.345,0 9.734,-13.51 c 2.22,-3.129 4.028,-5.941 5.433,-8.674 l 0.135,0.041 c -0.362,3.566 -0.452,6.812 -0.452,10.97 l 0,11.173 3.712,0 0,-26.7 -3.985,0 -9.688,13.548 C 7.106,16.518 5.07,19.571 3.576,22.459 L 3.441,22.421 c 0.225,-3.366 0.27,-6.574 0.27,-11.014 L 3.711,0 0,0 z"
             inkscape:connector-curvature="0"
             id="path70"
             style="fill:#2d2c2e;fill-opacity:1;fill-rule:nonzero;stroke:none" /></g><g
           transform="translate(184.8521,563.8047)"
           id="g72"><path
             d="m 0,0 -11.816,0 0,-9.627 13.221,0 0,-2.891 -17.203,0 0,26.7 16.524,0 0,-2.894 -12.542,0 0,-8.434 L 0,2.854 0,0 z"
             inkscape:connector-curvature="0"
             id="path74"
             style="fill:#2d2c2e;fill-opacity:1;fill-rule:nonzero;stroke:none" /></g><g
           transform="translate(191.3271,577.9863)"
           id="g76"><path
             d="m 0,0 3.985,0 0,-23.809 13.039,0 0,-2.891 L 0,-26.7 0,0 z"
             inkscape:connector-curvature="0"
             id="path78"
             style="fill:#2d2c2e;fill-opacity:1;fill-rule:nonzero;stroke:none" /></g><g
           transform="translate(264.6675,553.9814)"
           id="g80"><path
             d="m 0,0 c 0.996,-0.12 2.444,-0.161 3.985,-0.161 8.467,0 12.993,4.122 12.993,11.33 0.046,6.299 -4.03,10.299 -12.357,10.299 C 2.583,21.468 1.042,21.31 0,21.111 L 0,0 z m -3.938,23.609 c 2.398,0.355 5.251,0.592 8.375,0.592 5.66,0 9.688,-1.187 12.36,-3.325 2.761,-2.179 4.345,-5.27 4.345,-9.589 0,-4.357 -1.584,-7.923 -4.391,-10.378 -2.897,-2.495 -7.604,-3.842 -13.535,-3.842 -2.853,0 -5.162,0.12 -7.154,0.317 l 0,26.225 z"
             inkscape:connector-curvature="0"
             id="path82"
             style="fill:#2d2c2e;fill-opacity:1;fill-rule:nonzero;stroke:none" /></g><g
           transform="translate(306.6367,563.8047)"
           id="g84"><path
             d="m 0,0 -11.816,0 0,-9.627 13.218,0 0,-2.891 -17.203,0 0,26.7 16.526,0 0,-2.894 -12.541,0 0,-8.434 L 0,2.854 0,0 z"
             inkscape:connector-curvature="0"
             id="path86"
             style="fill:#2d2c2e;fill-opacity:1;fill-rule:nonzero;stroke:none" /></g><g
           transform="translate(223.3779,563.8252)"
           id="g88"><path
             d="m 0,0 c 0,3.752 3.152,7.804 9.152,7.804 5.252,0 7.803,-4.052 7.803,-7.354 0,-3.901 -2.702,-8.253 -8.702,-8.253 C 4.95,-7.803 0,-4.799 0,0 m 6.753,-45.765 c 0,5.101 -0.901,7.801 -8.405,9.002 -1.05,0.151 -1.352,0.45 -1.352,1.052 l 0,1.349 c 0,0.449 0.302,0.751 1.053,1.049 4.802,1.801 10.503,4.202 16.204,7.354 1.203,0.598 1.951,0.899 2.851,0.899 0.75,0 0.901,-0.751 0.75,-1.8 -0.298,-2.552 -0.298,-12.003 -0.298,-24.46 l 0,-16.355 c 0,-5.854 0,-11.254 0.15,-12.904 0.299,-2.851 0.749,-3.903 2.401,-3.903 l 6.902,0 c 1.2,0 1.499,-0.45 1.499,-1.351 l 0,-2.549 c 0,-1.05 -0.299,-1.5 -1.351,-1.5 -1.198,0 -8.099,0.45 -14.404,0.45 -8.702,0 -14.554,-0.45 -16.206,-0.45 -0.749,0 -1.198,0.299 -1.198,1.198 l 0,3.001 c 0,0.902 0.449,1.201 1.499,1.201 l 7.351,0 c 1.653,0 2.253,0.603 2.402,3.002 0.152,4.502 0.152,9.154 0.152,13.654 l 0,22.061 z"
             inkscape:connector-curvature="0"
             id="path90"
             style="fill:#f6c693;fill-opacity:1;fill-rule:nonzero;stroke:none" /></g><g
           transform="translate(565.186,235.8818)"
           id="g92"><path
             d="m 0,0 c 0,-4.726 -3.831,-8.56 -8.554,-8.56 -4.725,0 -8.557,3.834 -8.557,8.56 0,4.72 3.832,8.557 8.557,8.557 C -3.831,8.557 0,4.72 0,0 z"
             inkscape:connector-curvature="0"
             id="path94"
             style="fill:none;stroke:#2d2c2e;stroke-width:1.93700004;stroke-linecap:butt;stroke-linejoin:miter;stroke-miterlimit:4;stroke-opacity:1;stroke-dasharray:none" /></g><g
           transform="translate(555.2168,236.2695)"
           id="g96"><path
             d="m 0,0 c 0.089,0 0.161,-0.002 0.228,-0.002 0.068,-0.005 0.122,-0.005 0.16,-0.005 0.907,0 1.589,0.201 2.054,0.598 0.454,0.4 0.69,0.911 0.69,1.532 0,0.606 -0.19,1.099 -0.565,1.479 C 2.205,3.978 1.709,4.169 1.096,4.169 0.828,4.169 0.46,4.123 0,4.031 L 0,0 z m 6.743,-4.98 -2.536,0 -3.213,4.531 c -0.238,-0.01 -0.434,-0.016 -0.58,-0.016 -0.061,0 -0.13,0 -0.199,0.006 -0.072,0 -0.146,0.005 -0.215,0.01 L 0,-3.267 C 0,-3.877 0.066,-4.255 0.197,-4.403 0.368,-4.615 0.636,-4.72 0.994,-4.72 l 0.367,0 0,-0.26 -4.066,0 0,0.26 0.36,0 c 0.399,0 0.69,0.138 0.859,0.402 0.096,0.15 0.15,0.498 0.15,1.051 l 0,6.261 c 0,0.608 -0.069,0.991 -0.199,1.139 -0.184,0.207 -0.449,0.312 -0.81,0.312 l -0.36,0 0,0.266 3.461,0 c 1.007,0 1.75,-0.077 2.23,-0.228 C 3.461,4.332 3.867,4.057 4.207,3.655 4.542,3.255 4.705,2.774 4.705,2.213 4.705,1.622 4.511,1.104 4.135,0.662 3.755,0.228 3.165,-0.081 2.368,-0.266 l 1.954,-2.778 c 0.452,-0.639 0.835,-1.062 1.157,-1.274 0.319,-0.21 0.743,-0.34 1.264,-0.402 l 0,-0.26 z"
             inkscape:connector-curvature="0"
             id="path98"
             style="fill:#2d2c2e;fill-opacity:1;fill-rule:nonzero;stroke:none" /></g></g></g></g></svg>